<svg width="65" height="77" viewBox="0 0 65 77" fill="none" xmlns="http://www.w3.org/2000/svg">
<g clip-path="url(#clip0_312_10658)">
<path fill-rule="evenodd" clip-rule="evenodd" d="M32.0963 64.8225C33.9482 64.8225 35.4435 66.3241 35.4435 68.1698C35.4435 70.0217 33.9419 71.517 32.0963 71.517C30.2443 71.517 28.749 70.0154 28.749 68.1698C28.749 66.3178 30.2506 64.8225 32.0963 64.8225ZM19.5457 23.1791C18.8512 23.2042 18.3194 23.3481 17.9565 23.5921C17.7501 23.7297 17.5999 23.9049 17.4998 24.1176C17.3935 24.3491 17.3434 24.6369 17.3497 24.9623C17.3747 25.9195 17.8815 27.1708 18.8512 28.6098L18.8637 28.6286L22.0108 33.6338C23.2746 35.6421 24.5947 37.688 26.2402 39.1896C27.8231 40.6348 29.7376 41.6108 32.2777 41.6171C35.0243 41.6234 37.0327 40.6098 38.6656 39.0832C40.3611 37.4941 41.7 35.3168 43.0201 33.1458L46.5676 27.3085C47.2308 25.8006 47.4685 24.7933 47.3184 24.199C47.2308 23.8486 46.8429 23.6734 46.1797 23.6421C46.042 23.6359 45.8919 23.6359 45.748 23.6359C45.5916 23.6421 45.4226 23.6484 45.2537 23.6672C45.1599 23.6734 45.066 23.6672 44.9784 23.6484C44.6656 23.6672 44.3403 23.6421 44.0087 23.5983L45.2224 18.224C36.2131 19.6442 29.4748 12.956 19.9524 16.8851L20.6406 23.2167C20.2464 23.2417 19.8773 23.2292 19.5457 23.1791ZM47.3747 22.0467C48.2443 22.3095 48.8074 22.8663 49.0326 23.761C49.2829 24.7558 49.0139 26.151 48.1693 28.0592C48.1567 28.0968 48.138 28.1281 48.1192 28.1593L44.5342 34.0655C43.1515 36.3429 41.7501 38.6265 39.8731 40.3783L39.7793 40.4596C39.9607 40.7162 40.1547 41.004 40.3549 41.298C40.9743 42.2115 41.6875 43.2501 42.3444 44.0634C46.2422 46.4847 54.8137 47.1416 58.1672 49.0061C66.701 53.761 63.5853 65.3168 64.2047 73.6317C64.0233 75.5962 62.9096 76.7224 60.7136 76.8913H58.3424L60.9388 57.1833C61.139 55.6505 60.0504 54.3929 58.7115 54.3929H40.4425C40.8929 51.1708 41.2245 48.0926 41.3747 45.7714C40.5238 44.8204 39.6103 43.4878 38.8283 42.3366C38.6531 42.0801 38.4842 41.8361 38.3278 41.6046C36.6823 42.712 34.724 43.394 32.2715 43.3877C29.5374 43.3814 27.4101 42.443 25.6395 41.0102C25.1453 42.493 24.4133 44.5326 23.7125 45.5024C23.65 45.59 23.5749 45.6651 23.4936 45.7214C23.7939 48.1239 24.2131 51.2021 24.7073 54.3929H5.98783C4.64894 54.3929 3.55405 55.6505 3.76051 57.1833L6.35697 76.8913H3.98575C1.79597 76.7224 0.682306 75.5962 0.500867 73.6317C0.607228 64.8288 -2.73375 54.1739 6.5384 49.0061C9.93569 47.1103 18.6886 46.4659 22.5113 43.9633C23.0931 42.8684 23.7438 40.8976 24.1317 39.7214C24.1755 39.59 24.1004 39.809 24.1693 39.6088C22.7678 38.1009 21.6166 36.3178 20.5155 34.566L17.3684 29.5608C16.2172 27.8465 15.6166 26.2761 15.5853 24.9873C15.5666 24.3804 15.6729 23.8298 15.8919 23.3481C16.1296 22.8413 16.4863 22.4159 16.9743 22.0905C17.1995 21.9341 17.456 21.809 17.7376 21.7026C17.5311 18.9873 17.456 15.5712 17.5874 12.7057C17.6562 12.0238 17.7876 11.3481 17.9753 10.6661C19.1265 6.54933 22.6677 3.58374 26.7094 2.18854C28.6677 1.51283 27.9107 -0.101348 29.894 0.00501275C34.5926 0.26153 41.8377 3.28968 44.6218 6.49928C48.5134 11.0227 47.5123 16.5598 47.3747 22.0467ZM25.871 49.5691C24.2819 47.761 24.1505 45.8715 25.871 43.8694C27.8606 44.37 29.6875 45.2334 31.3643 46.3971C31.7271 46.2407 32.1463 46.1718 32.5592 46.2031C34.3048 44.9643 36.5321 44.4701 38.4779 43.5379C40.7991 45.8027 40.5551 47.8799 38.2652 49.8194C36.9889 49.5253 35.7751 49.0749 34.6114 48.4868C34.5801 48.7871 34.4988 49.1124 34.3611 49.469L34.9555 54.4054H30.2131L30.8074 49.469C30.4383 48.8434 30.2944 48.3053 30.3069 47.8611C28.9305 48.687 27.4352 49.2125 25.871 49.5691Z" fill="black"/>
</g>
<defs>
<clipPath id="clip0_312_10658">
<rect width="64.2794" height="76.88" fill="white"/>
</clipPath>
</defs>
</svg>
